<svg id="edf18d30-cc52-424b-97b6-9ad104c6a43a" data-name="Layer 1" xmlns="http://www.w3.org/2000/svg" viewBox="0 0 320 326"><defs><style>.ed59bf6e-2c91-4652-9e93-f67327e3f88e{fill:#18847a;}.edb43ae6-6cf5-4f23-9e8f-7e579c640a01{fill:#33efb0;}</style></defs><path class="ed59bf6e-2c91-4652-9e93-f67327e3f88e" d="M101.7,185.7,13.1,209.5c1.6,4.9,3.4,9.7,5.4,14.5l87.2-23.4L29.5,244.7a137.9,137.9,0,0,0,8.9,12.7L113.5,214,53.4,274.1c3.7,3.5,7.6,6.9,11.7,10.1L124.4,225,83.1,296.4a149.9,149.9,0,0,0,13.8,7.1l40.9-70.8-21,78.2c5,1.4,10,2.6,15.1,3.6l20.8-77.8V317l7.7.2,7.8-.2V236.7L189,314.5c5.1-1,10.1-2.2,15.1-3.6l-21-78.2L224,303.5a149.9,149.9,0,0,0,13.8-7.1L196.5,225l59.3,59.2c4-3.2,7.9-6.5,11.7-10.1L207.4,214l75.1,43.4a137.9,137.9,0,0,0,8.9-12.7l-102.1-59H313.4c.7-5.1,1.2-10.3,1.5-15.5H6c.3,5.2.8,10.4,1.5,15.5Z"/><path class="edb43ae6-6cf5-4f23-9e8f-7e579c640a01" d="M313.4,139.3H219.2l88.6-23.7a150.8,150.8,0,0,0-5.5-14.6l-87.1,23.4,76.2-44.1a153,153,0,0,0-8.9-12.7L207.4,111l60.1-60q-5.7-5.4-11.7-10.2l-59.3,59.3,41.3-71.5c-4.5-2.6-9.1-4.9-13.8-7.1L183.1,92.3l21-78.2c-5-1.4-10-2.6-15.1-3.6L168.2,88.3V8.1c-2.6-.2-5.2-.2-7.8-.2s-5.1,0-7.7.2V88.3L131.9,10.5c-5.1,1-10.1,2.2-15.1,3.6l21,78.2L96.9,21.5c-4.7,2.2-9.3,4.5-13.8,7.1l41.3,71.5L65.1,40.8c-4,3.2-8,6.6-11.7,10.2l60.1,60L38.4,67.6a153,153,0,0,0-8.9,12.7l102.1,59H7.5c-.7,5.1-1.2,10.3-1.5,15.5H314.9C314.6,149.6,314.1,144.4,313.4,139.3Z"/></svg>